HIERARCHY
ROOT Hips
{
	OFFSET -0.001795 -0.223333 0.028219
	CHANNELS 6 Xposition Yposition Zposition Zrotation Yrotation Xrotation 
	JOINT LeftUpLeg
	{
		OFFSET 0.069520 -0.091406 -0.006815
		CHANNELS 3 Zrotation Yrotation Xrotation
		JOINT LeftLeg
		{
			OFFSET 0.034277 -0.375199 -0.004496
			CHANNELS 3 Zrotation Yrotation Xrotation
			JOINT LeftFoot
			{
				OFFSET -0.013596 -0.397961 -0.043693
				CHANNELS 3 Zrotation Yrotation Xrotation
				JOINT LeftToe
				{
					OFFSET 0.026358 -0.055791 0.119288
					CHANNELS 3 Zrotation Yrotation Xrotation
					End Site
					{
						OFFSET 0.000000 0.000000 0.000000
					}
				}
			}
		}
	}
	JOINT RightUpLeg
	{
		OFFSET -0.067670 -0.090522 -0.004320
		CHANNELS 3 Zrotation Yrotation Xrotation
		JOINT RightLeg
		{
			OFFSET -0.038290 -0.382569 -0.008850
			CHANNELS 3 Zrotation Yrotation Xrotation
			JOINT RightFoot
			{
				OFFSET 0.015774 -0.398415 -0.042312
				CHANNELS 3 Zrotation Yrotation Xrotation
				JOINT RightToe
				{
					OFFSET -0.025372 -0.048144 0.123348
					CHANNELS 3 Zrotation Yrotation Xrotation
					End Site
					{
						OFFSET 0.000000 0.000000 0.000000
					}
				}
			}
		}
	}
	JOINT Spine
	{
		OFFSET -0.002533 0.108963 -0.026696
		CHANNELS 3 Zrotation Yrotation Xrotation
		JOINT Spine1
		{
			OFFSET 0.005487 0.135180 0.001092
			CHANNELS 3 Zrotation Yrotation Xrotation
			JOINT Spine2
			{
				OFFSET 0.001457 0.052922 0.025425
				CHANNELS 3 Zrotation Yrotation Xrotation
				JOINT Neck
				{
					OFFSET -0.002778 0.213870 -0.042857
					CHANNELS 3 Zrotation Yrotation Xrotation
					JOINT Head
					{
						OFFSET 0.005152 0.064970 0.051349
						CHANNELS 3 Zrotation Yrotation Xrotation
						End Site
						{
							OFFSET 0.000000 0.000000 0.000000
						}
					}
				}
				JOINT LeftShoulder
				{
					OFFSET 0.078845 0.121749 -0.034090
					CHANNELS 3 Zrotation Yrotation Xrotation
					JOINT LeftArm
					{
						OFFSET 0.090977 0.030469 -0.008868
						CHANNELS 3 Zrotation Yrotation Xrotation
						JOINT LeftForeArm
						{
							OFFSET 0.259612 -0.012772 -0.027456
							CHANNELS 3 Zrotation Yrotation Xrotation
							JOINT LeftHand
							{
								OFFSET 0.249234 0.008986 -0.001171
								CHANNELS 3 Zrotation Yrotation Xrotation
								End Site
								{
									OFFSET 0.000000 0.000000 0.000000
								}
							}
						}
					}
				}
				JOINT RightShoulder
				{
					OFFSET -0.081759 0.118833 -0.038615
					CHANNELS 3 Zrotation Yrotation Xrotation
					JOINT RightArm
					{
						OFFSET -0.096012 0.032551 -0.009143
						CHANNELS 3 Zrotation Yrotation Xrotation
						JOINT RightForeArm
						{
							OFFSET -0.253742 -0.013329 -0.021401
							CHANNELS 3 Zrotation Yrotation Xrotation
							JOINT RightHand
							{
								OFFSET -0.255298 0.007772 -0.005559
								CHANNELS 3 Zrotation Yrotation Xrotation
								End Site
								{
									OFFSET 0.000000 0.000000 0.000000
								}
							}
						}
					}
				}
			}
		}
	}
}
MOTION
Frames: 11
Frame Time: 0.050000
0.079525 0.905201 -0.039417 -4.344014 -11.210551 -7.579954 19.767177 2.281031 -14.231785 -2.988855 1.601018 38.273132 7.867998 16.197800 4.007959 0.000000 0.000000 0.000000 -13.457239 0.530240 -22.415027 10.508902 -1.096720 46.012445 -3.999270 -13.054311 10.678560 0.000000 0.000000 0.000000 -6.526062 0.361987 14.367098 4.318853 -0.695994 -23.884671 6.309310 8.313229 28.208736 0.133480 1.819288 -24.716762 0.000000 0.000000 0.000000 -29.798699 2.972950 -4.301673 -35.794942 -5.604093 -4.545765 -14.470972 -63.743146 12.546683 0.000000 0.000000 0.000000 10.210923 20.059842 8.448084 46.413367 35.248306 6.997300 -0.682621 85.856944 5.895459 0.000000 0.000000 0.000000 
0.108006 0.887681 -0.044241 -3.209377 -13.628828 -7.368202 18.353203 2.071165 -12.639542 -3.880808 2.533171 37.873077 10.506192 21.600920 -1.457264 0.000000 0.000000 0.000000 -17.627182 0.220954 -26.608256 15.022012 -2.899210 49.058453 -4.890678 -15.316374 13.345742 0.000000 0.000000 0.000000 -6.198885 0.484748 16.099604 5.519576 -1.104375 -23.147872 4.599133 8.840839 28.860159 0.436660 1.447036 -23.785497 0.000000 0.000000 0.000000 -29.965507 0.658641 -2.327846 -33.802214 -3.397582 -5.022894 -4.825825 -57.447776 5.692726 0.000000 0.000000 0.000000 12.760465 19.796550 8.576742 43.492875 37.414841 7.003575 -15.839657 87.057714 -8.966219 0.000000 0.000000 0.000000 
0.129186 0.876756 -0.047781 -2.843104 -14.215323 -7.127181 17.890961 2.104148 -13.475036 -6.719787 4.334815 39.447286 11.700136 24.792833 -5.633246 0.000000 0.000000 0.000000 -21.079897 -0.278512 -30.549579 18.012535 -4.654231 53.014326 -5.396100 -16.693726 17.731943 0.000000 0.000000 0.000000 -5.735071 0.517847 17.591257 5.662064 -1.260958 -22.242929 3.825345 6.992594 28.184038 0.081421 1.255473 -22.698140 0.000000 0.000000 0.000000 -29.378821 0.922058 -1.629997 -32.381447 -4.554163 -4.776115 -2.312040 -47.461274 3.573144 0.000000 0.000000 0.000000 14.814874 19.971241 8.547170 43.521290 35.948849 6.420726 -105.501705 87.386572 -97.279044 0.000000 0.000000 0.000000 
0.142516 0.873475 -0.048466 -2.917385 -14.741893 -6.917701 17.737191 2.095824 -13.298130 -8.190936 5.368251 40.195147 12.708897 27.405549 -7.269284 0.000000 0.000000 0.000000 -21.379440 -0.257638 -31.483398 18.938371 -5.120966 53.763557 -5.911063 -17.767551 20.376030 0.000000 0.000000 0.000000 -5.163970 0.436463 17.402690 7.003515 -1.695481 -21.371694 2.448916 6.221025 28.785076 -0.835356 1.602744 -20.615611 0.000000 0.000000 0.000000 -28.392498 1.009178 -1.222721 -33.281870 -4.470247 -5.030910 -2.829274 -41.708404 3.342200 0.000000 0.000000 0.000000 15.358181 19.500557 8.180266 45.757792 35.322519 6.613413 -149.985235 86.128525 -142.195024 0.000000 0.000000 0.000000 
0.150362 0.872907 -0.048248 -2.208836 -14.889109 -7.136699 16.738520 1.938989 -13.568343 -9.184493 5.950335 39.846628 13.483450 29.127340 -7.176258 0.000000 0.000000 0.000000 -20.718488 -0.089992 -29.784291 18.623295 -4.651419 50.911745 -8.156040 -21.190394 19.688746 0.000000 0.000000 0.000000 -5.363823 0.455072 16.961217 6.941506 -1.776898 -20.505202 2.400036 5.678940 28.846405 -1.593876 1.961852 -19.154509 0.000000 0.000000 0.000000 -28.319662 1.012029 -0.983866 -32.806086 -5.173532 -4.860788 -2.744457 -39.979624 3.158424 0.000000 0.000000 0.000000 15.632618 18.510867 7.583564 47.105281 34.809122 6.669915 -167.200463 85.284063 -160.405180 0.000000 0.000000 0.000000 
0.154959 0.873505 -0.048333 -1.677162 -14.248483 -7.637113 16.565523 1.932601 -14.286378 -10.331754 6.648660 40.905858 13.141055 27.991590 -6.357807 0.000000 0.000000 0.000000 -19.534594 0.024556 -27.419042 16.606292 -3.535361 48.035259 -8.465102 -21.618669 17.231152 0.000000 0.000000 0.000000 -5.323720 0.421030 16.774730 6.989921 -1.862858 -19.758161 2.304772 5.557463 29.539523 -1.411237 1.859128 -18.944708 0.000000 0.000000 0.000000 -27.439157 1.354668 -1.203895 -33.532622 -7.215784 -4.507601 -2.952214 -39.228355 3.197099 0.000000 0.000000 0.000000 15.705219 17.935469 7.372559 47.585568 36.095904 7.243118 -154.374531 85.666033 -146.542485 0.000000 0.000000 0.000000 
0.158399 0.873514 -0.049537 -1.138735 -13.538594 -7.837022 16.054253 1.834052 -14.964375 -11.111390 7.069542 41.576710 13.104966 27.875853 -6.560011 0.000000 0.000000 0.000000 -18.606738 0.086492 -25.259454 13.910534 -2.252864 45.609580 -7.936674 -20.597471 13.416195 0.000000 0.000000 0.000000 -5.077232 0.366880 16.770570 6.473938 -1.715849 -19.711716 2.505471 6.006697 30.227991 -1.335656 1.944094 -18.958787 0.000000 0.000000 0.000000 -27.037391 0.649038 -0.989230 -34.958607 -8.758926 -4.238804 -2.146505 -39.348278 2.917948 0.000000 0.000000 0.000000 15.686773 18.078145 7.630167 46.712015 38.145989 7.859377 -122.124795 84.388540 -110.994111 0.000000 0.000000 0.000000 
0.161080 0.873618 -0.051274 -1.211804 -12.956779 -7.552343 16.256805 1.874589 -15.576085 -12.048349 7.457452 41.504066 13.126247 27.440522 -5.077963 0.000000 0.000000 0.000000 -17.540878 0.190006 -23.720413 12.003249 -1.449845 43.528789 -7.337523 -19.303534 10.418048 0.000000 0.000000 0.000000 -4.657652 0.302310 16.926917 6.579698 -1.755245 -19.409685 2.824109 6.914484 29.900958 -1.278631 2.111166 -18.944982 0.000000 0.000000 0.000000 -27.857540 0.009167 -1.104873 -36.511609 -10.048393 -3.871715 -2.503247 -39.390754 3.003748 0.000000 0.000000 0.000000 14.517535 18.438670 7.930666 45.899708 40.861073 8.880604 -101.735047 80.266555 -85.318862 0.000000 0.000000 0.000000 
0.162856 0.874328 -0.053020 -1.062422 -11.791674 -7.655069 16.185171 1.819260 -16.197072 -12.336820 7.384911 41.782469 13.150033 27.269983 -4.579386 0.000000 0.000000 0.000000 -17.448566 0.087654 -22.921423 10.715982 -1.076430 42.912660 -6.780400 -18.010294 8.696982 0.000000 0.000000 0.000000 -4.416485 0.234249 16.942713 6.580311 -1.776008 -18.993474 2.863640 6.714926 29.578114 -1.022941 1.958876 -17.659305 0.000000 0.000000 0.000000 -27.580493 -0.519971 -0.955195 -38.761771 -9.695036 -4.053154 -2.737313 -39.674478 3.131155 0.000000 0.000000 0.000000 13.642182 19.338284 8.330368 44.195283 44.054828 9.776793 -90.730630 75.791572 -69.907335 0.000000 0.000000 0.000000 
0.163542 0.874124 -0.053992 -1.313197 -10.793271 -7.594200 17.398731 1.970179 -16.077468 -13.559000 7.734470 41.481566 13.060135 26.740728 -3.421762 0.000000 0.000000 0.000000 -16.875490 0.073909 -22.120961 9.782575 -0.848910 42.189061 -6.415099 -16.961304 6.697813 0.000000 0.000000 0.000000 -3.906947 0.125019 16.776402 6.552405 -1.787008 -18.592033 2.966097 6.841111 29.048358 -0.444012 1.585981 -16.155005 0.000000 0.000000 0.000000 -26.868863 -1.371690 -0.661684 -40.870957 -9.818138 -4.035924 -2.422649 -39.293785 2.966986 0.000000 0.000000 0.000000 12.403689 20.069652 8.610939 43.137429 46.096473 10.403026 -87.153248 71.533448 -62.209034 0.000000 0.000000 0.000000 
0.163253 0.873707 -0.054358 -1.290982 -9.601625 -7.589656 18.002034 1.998664 -16.244138 -14.456032 7.900729 41.342106 13.139050 26.846585 -3.489090 0.000000 0.000000 0.000000 -17.138723 -0.050348 -20.690584 9.419214 -0.937576 40.784684 -6.281556 -16.372968 5.123914 0.000000 0.000000 0.000000 -4.040163 0.103703 16.475440 6.831654 -1.956509 -17.415274 2.989835 6.415392 28.399540 -0.381448 1.555544 -15.908648 0.000000 0.000000 0.000000 -26.548082 -2.164193 -0.291924 -41.837931 -10.388240 -3.816116 -1.575761 -38.900391 2.610016 0.000000 0.000000 0.000000 11.825555 20.796357 8.896934 41.459213 47.043856 10.284481 -89.982933 69.360751 -62.649339 0.000000 0.000000 0.000000 
